<svg id="Layer_1" xmlns="http://www.w3.org/2000/svg" viewBox="0 0 128 96">
  <style>
    .st0{fill:#fff}.st1{fill:#d7282f}
  </style>
  <path class="st0" d="M49.4 48c0 13.5-11 24.5-24.5 24.5S.5 61.5.5 48s11-24.5 24.5-24.5 24.4 11 24.4 24.5"/>
  <path class="st0" d="M127.5 48c0 26.3-21.4 47.7-47.7 47.7S32.1 74.3 32.1 48C32.1 21.7 53.5.3 79.8.3s47.7 21.4 47.7 47.7"/>
  <path class="st1" d="M126 48c0 25.5-20.7 46.2-46.2 46.2S33.6 73.5 33.6 48c0-25.5 20.7-46.2 46.2-46.2S126 22.5 126 48"/>
  <path d="M47.9 48c0 12.7-10.3 23-23 23S2 60.7 2 48s10.3-23 23-23 22.9 10.3 22.9 23" fill="#0e2538"/>
  <path class="st0" d="M20.3 42.9c-.9 0-1.7.2-2.5.7-.7.5-1.3 1.1-1.7 1.8-.4.8-.6 1.6-.6 2.5 0 .9.2 1.8.6 2.6.4.8 1 1.4 1.7 1.9s1.6.7 2.5.7c.9 0 1.7-.2 2.5-.7.7-.5 1.3-1.2 1.8-2.2h4.8c-.4 1.4-1 2.5-1.9 3.6-.9 1-1.9 1.8-3.2 2.4-1.2.6-2.6.8-4 .8-1.3 0-2.5-.2-3.6-.7-1.1-.4-2.2-1.1-3.1-1.9-.9-.9-1.6-1.9-2.1-3-.4-1.1-.7-2.3-.7-3.6 0-1.5.4-2.9 1.2-4.2.8-1.3 1.9-2.4 3.4-3.2 1.4-.8 3-1.2 4.6-1.2 1.2 0 2.4.2 3.4.5s2 .9 2.8 1.6c1.7 1.4 2.7 3 3 4.7h-4.8c-.4-.9-1-1.7-1.7-2.2s-1.5-.9-2.4-.9M61.3 39.4v3.9h-6.5v2.9h6.3V50h-6.3v6.6h-5.2V39.4zM75.1 39.4v3.9h-6.7v2.6h6.5v3.9h-6.5v2.9h6.7v3.9h-12V39.4zM123.1 39.4v3.9h-6.7v2.6h6.5v3.9h-6.5v2.9h6.7v3.9h-12V39.4zM81.6 56.6h-4.8V39.4h4.4l7.6 10.9-.2-10.9h4.8v17.2H89l-7.5-10.5zM102.3 42.8c-.5 0-1 .1-1.3.4-.4.3-.6.6-.6 1 0 .5.3.9.8 1.2.5.3 1.4.7 2.8 1.1 1.6.5 2.8 1.1 3.6 1.6.9.5 1.4 1.1 1.8 1.6.3.6.5 1.3.5 2 0 1.7-.7 2.9-2 3.9-1.3.9-3.2 1.4-5.5 1.4-2.4 0-4.3-.5-5.7-1.5-1.4-1-2.1-2.4-2.1-4.2v-.4h5.5c0 .7.2 1.3.6 1.7.4.4 1 .6 1.6.6.6 0 1-.2 1.5-.5.4-.3.6-.7.6-1.2s-.3-1-1-1.3c-.7-.3-1.6-.7-2.8-1.1-.1 0-.2-.1-.3-.1-.1 0-.2-.1-.3-.1-1.8-.6-3.1-1.2-3.9-2-.8-.8-1.2-1.7-1.2-2.8 0-.9.3-1.8 1-2.6s1.6-1.4 2.8-1.8c1.2-.4 2.4-.7 3.7-.7 1.4 0 2.6.2 3.8.7 1.2.5 2 1.1 2.6 1.8.6.7.8 1.7.9 2.8h-5.4c-.1-.6-.3-1-.6-1.3-.4-.1-.8-.2-1.4-.2"/>
  <path class="st0" d="M43.3 48c0-.9-.2-1.7-.6-2.5-.4-.8-1-1.4-1.7-1.9s-1.6-.7-2.5-.7-1.8.2-2.5.7c-.7.5-1.3 1.1-1.7 1.8-.4.8-.6 1.6-.6 2.5 0 .9.2 1.8.6 2.6.4.8 1 1.4 1.7 1.8.7.5 1.6.7 2.5.7.9 0 1.7-.2 2.5-.7.7-.5 1.3-1.1 1.7-1.8.4-.7.6-1.6.6-2.5m0 0c0-.9-.2-1.7-.6-2.5-.4-.8-1-1.4-1.7-1.9s-1.6-.7-2.5-.7-1.8.2-2.5.7c-.7.5-1.3 1.1-1.7 1.8-.4.8-.6 1.6-.6 2.5 0 .9.2 1.8.6 2.6.4.8 1 1.4 1.7 1.8.7.5 1.6.7 2.5.7.9 0 1.7-.2 2.5-.7.7-.5 1.3-1.1 1.7-1.8.4-.7.6-1.6.6-2.5m-14.2.4c0-1.7.4-3.3 1.2-4.7.8-1.4 1.9-2.5 3.4-3.3 1.4-.8 3-1.2 4.8-1.2 1.7 0 3.3.4 4.7 1.2 1.4.8 2.6 1.8 3.4 3.2.8 1.3 1.3 2.8 1.3 4.4 0 1.7-.4 3.2-1.2 4.6-.8 1.4-1.9 2.5-3.3 3.3-1.4.8-3 1.2-4.6 1.2-1.7 0-3.2-.4-4.7-1.1-1.5-.7-2.7-1.7-3.6-3-1-1.5-1.4-3-1.4-4.6"/>
  <path class="st1" d="M43.3 48c0-.9-.2-1.7-.6-2.5-.4-.8-1-1.4-1.7-1.9s-1.6-.7-2.5-.7c-.9 0-1.8.2-2.5.7-.7.5-1.3 1.1-1.7 1.8-.4.8-.6 1.6-.6 2.5 0 .9.2 1.8.6 2.6.4.8 1 1.4 1.8 1.8.7.5 1.6.7 2.5.7.9 0 1.7-.2 2.5-.7.7-.5 1.3-1.1 1.7-1.8.3-.7.5-1.6.5-2.5"/>
</svg>
